<mxfile host="app.diagrams.net" modified="2023-01-09T07:31:58.211Z" agent="5.0 (Windows NT 10.0; Win64; x64) AppleWebKit/537.36 (KHTML, like Gecko) Chrome/108.0.0.0 Safari/537.36 Edg/108.0.1462.76" version="20.8.3" etag="-WgEWxUz8Ue-t6Zrt6iQ" type="github">
  <diagram id="j2C-HfyACLekuq8zqn1M" name="第 1 页">
    <mxGraphModel dx="1669" dy="461" grid="1" gridSize="10" guides="1" tooltips="1" connect="1" arrows="1" fold="1" page="1" pageScale="1" pageWidth="827" pageHeight="1169" math="0" shadow="0">
      <root>
        <mxCell id="0" />
        <mxCell id="1" parent="0" />
        <mxCell id="0VG0Au5USN9--fyUCD1p-1" value="nerual rendering" style="ellipse;whiteSpace=wrap;html=1;" vertex="1" parent="1">
          <mxGeometry x="280" y="390" width="120" height="40" as="geometry" />
        </mxCell>
        <mxCell id="0VG0Au5USN9--fyUCD1p-4" value="" style="edgeStyle=orthogonalEdgeStyle;rounded=0;orthogonalLoop=1;jettySize=auto;html=1;entryX=0;entryY=0.5;entryDx=0;entryDy=0;" edge="1" parent="1" source="0VG0Au5USN9--fyUCD1p-2" target="0VG0Au5USN9--fyUCD1p-5">
          <mxGeometry relative="1" as="geometry" />
        </mxCell>
        <mxCell id="0VG0Au5USN9--fyUCD1p-12" value="" style="edgeStyle=orthogonalEdgeStyle;rounded=0;orthogonalLoop=1;jettySize=auto;html=1;" edge="1" parent="1" source="0VG0Au5USN9--fyUCD1p-2" target="0VG0Au5USN9--fyUCD1p-11">
          <mxGeometry relative="1" as="geometry" />
        </mxCell>
        <mxCell id="0VG0Au5USN9--fyUCD1p-2" value="Synthesis of controllable and photo-realistic images and videos" style="ellipse;whiteSpace=wrap;html=1;" vertex="1" parent="1">
          <mxGeometry x="-10" y="185" width="220" height="50" as="geometry" />
        </mxCell>
        <mxCell id="0VG0Au5USN9--fyUCD1p-3" value="simulate the light transport from light sources to the virtual camera for synthesis" style="ellipse;whiteSpace=wrap;html=1;" vertex="1" parent="1">
          <mxGeometry x="430" y="285" width="240" height="40" as="geometry" />
        </mxCell>
        <mxCell id="0VG0Au5USN9--fyUCD1p-8" value="" style="edgeStyle=orthogonalEdgeStyle;rounded=0;orthogonalLoop=1;jettySize=auto;html=1;exitX=1;exitY=0.5;exitDx=0;exitDy=0;" edge="1" parent="1" source="0VG0Au5USN9--fyUCD1p-5" target="0VG0Au5USN9--fyUCD1p-3">
          <mxGeometry relative="1" as="geometry" />
        </mxCell>
        <mxCell id="0VG0Au5USN9--fyUCD1p-5" value="physics-based rendering methods(ray tracing)" style="rounded=0;whiteSpace=wrap;html=1;" vertex="1" parent="1">
          <mxGeometry x="272" y="285" width="120" height="40" as="geometry" />
        </mxCell>
        <mxCell id="0VG0Au5USN9--fyUCD1p-7" value="" style="edgeStyle=orthogonalEdgeStyle;rounded=0;orthogonalLoop=1;jettySize=auto;html=1;" edge="1" parent="1" source="0VG0Au5USN9--fyUCD1p-6" target="0VG0Au5USN9--fyUCD1p-5">
          <mxGeometry relative="1" as="geometry" />
        </mxCell>
        <mxCell id="0VG0Au5USN9--fyUCD1p-6" value="physical parameters:&lt;br&gt;geometry and material" style="shape=parallelogram;perimeter=parallelogramPerimeter;whiteSpace=wrap;html=1;fixedSize=1;" vertex="1" parent="1">
          <mxGeometry x="250" y="235" width="164" height="30" as="geometry" />
        </mxCell>
        <mxCell id="0VG0Au5USN9--fyUCD1p-19" value="" style="edgeStyle=orthogonalEdgeStyle;rounded=0;orthogonalLoop=1;jettySize=auto;html=1;" edge="1" parent="1" source="0VG0Au5USN9--fyUCD1p-11" target="0VG0Au5USN9--fyUCD1p-18">
          <mxGeometry relative="1" as="geometry" />
        </mxCell>
        <mxCell id="0VG0Au5USN9--fyUCD1p-11" value="mathematical approximations and heuristics bsed methods(Phong shading)" style="whiteSpace=wrap;html=1;" vertex="1" parent="1">
          <mxGeometry x="272" y="115" width="120" height="70" as="geometry" />
        </mxCell>
        <mxCell id="0VG0Au5USN9--fyUCD1p-15" value="" style="edgeStyle=orthogonalEdgeStyle;rounded=0;orthogonalLoop=1;jettySize=auto;html=1;exitX=1;exitY=0.5;exitDx=0;exitDy=0;" edge="1" parent="1" source="0VG0Au5USN9--fyUCD1p-13" target="0VG0Au5USN9--fyUCD1p-11">
          <mxGeometry relative="1" as="geometry">
            <Array as="points">
              <mxPoint x="332" y="80" />
            </Array>
          </mxGeometry>
        </mxCell>
        <mxCell id="0VG0Au5USN9--fyUCD1p-13" value="triangular meshes" style="shape=parallelogram;perimeter=parallelogramPerimeter;whiteSpace=wrap;html=1;fixedSize=1;" vertex="1" parent="1">
          <mxGeometry x="280" y="70" width="110" height="25" as="geometry" />
        </mxCell>
        <mxCell id="0VG0Au5USN9--fyUCD1p-18" value="approximate the real-world image formation model" style="ellipse;whiteSpace=wrap;html=1;" vertex="1" parent="1">
          <mxGeometry x="452" y="130" width="168" height="40" as="geometry" />
        </mxCell>
      </root>
    </mxGraphModel>
  </diagram>
</mxfile>
